<svg width="80" height="80" viewBox="0 0 80 80" xmlns="http://www.w3.org/2000/svg">
  <!-- Modern circular background with gradient -->
  <defs>
    <linearGradient id="bgGradient" x1="0%" y1="0%" x2="100%" y2="100%">
      <stop offset="0%" style="stop-color:#ffc107;stop-opacity:1" />
      <stop offset="100%" style="stop-color:#ff8f00;stop-opacity:1" />
    </linearGradient>
    <linearGradient id="scaleGradient" x1="0%" y1="0%" x2="100%" y2="100%">
      <stop offset="0%" style="stop-color:#1a237e;stop-opacity:1" />
      <stop offset="100%" style="stop-color:#303f9f;stop-opacity:1" />
    </linearGradient>
    <filter id="glow">
      <feGaussianBlur stdDeviation="3" result="coloredBlur"/>
      <feMerge> 
        <feMergeNode in="coloredBlur"/>
        <feMergeNode in="SourceGraphic"/>
      </feMerge>
    </filter>
  </defs>
  
  <!-- Outer circle with gradient -->
  <circle cx="40" cy="40" r="38" fill="url(#bgGradient)" stroke="#ffffff" stroke-width="2" filter="url(#glow)"/>
  
  <!-- Inner circle for contrast -->
  <circle cx="40" cy="40" r="32" fill="none" stroke="#ffffff" stroke-width="1" opacity="0.3"/>
  
  <!-- Stylized scales of justice -->
  <g transform="translate(40, 40)">
    <!-- Central pillar -->
    <rect x="-1" y="-20" width="2" height="25" fill="url(#scaleGradient)"/>
    
    <!-- Top of scales -->
    <circle cx="0" cy="-20" r="2" fill="url(#scaleGradient)"/>
    
    <!-- Crossbeam -->
    <rect x="-18" y="-18" width="36" height="1.5" fill="url(#scaleGradient)"/>
    
    <!-- Left scale -->
    <g transform="translate(-15, -17)">
      <rect x="-6" y="0" width="12" height="1" fill="url(#scaleGradient)"/>
      <path d="M -6 1 Q -6 8 0 8 Q 6 8 6 1" fill="none" stroke="url(#scaleGradient)" stroke-width="1.5"/>
      <line x1="-4" y1="0" x2="-4" y2="-3" stroke="url(#scaleGradient)" stroke-width="0.8"/>
      <line x1="4" y1="0" x2="4" y2="-3" stroke="url(#scaleGradient)" stroke-width="0.8"/>
    </g>
    
    <!-- Right scale -->
    <g transform="translate(15, -17)">
      <rect x="-6" y="0" width="12" height="1" fill="url(#scaleGradient)"/>
      <path d="M -6 1 Q -6 8 0 8 Q 6 8 6 1" fill="none" stroke="url(#scaleGradient)" stroke-width="1.5"/>
      <line x1="-4" y1="0" x2="-4" y2="-3" stroke="url(#scaleGradient)" stroke-width="0.8"/>
      <line x1="4" y1="0" x2="4" y2="-3" stroke="url(#scaleGradient)" stroke-width="0.8"/>
    </g>
    
    <!-- Modern geometric accents -->
    <polygon points="-8,-8 -4,-12 0,-8 4,-12 8,-8" fill="#ffffff" opacity="0.6"/>
    
    <!-- "A" monogram integrated subtly -->
    <path d="M -5 8 L 0 -2 L 5 8 M -3 4 L 3 4" stroke="#ffffff" stroke-width="2" fill="none" opacity="0.8"/>
  </g>
  
  <!-- Decorative corner elements -->
  <circle cx="15" cy="15" r="2" fill="#ffffff" opacity="0.4"/>
  <circle cx="65" cy="15" r="2" fill="#ffffff" opacity="0.4"/>
  <circle cx="15" cy="65" r="2" fill="#ffffff" opacity="0.4"/>
  <circle cx="65" cy="65" r="2" fill="#ffffff" opacity="0.4"/>
</svg>
