<?xml version="1.0" encoding="UTF-8"?>
<svg version="1.1" xmlns="http://www.w3.org/2000/svg" width="1024" height="1024">
<path d="M0 0 C337.92 0 675.84 0 1024 0 C1024 337.92 1024 675.84 1024 1024 C686.08 1024 348.16 1024 0 1024 C0 686.08 0 348.16 0 0 Z " fill="#FDFDFD" transform="translate(0,0)"/>
<path d="M0 0 C38.61 0 77.22 0 117 0 C117 4.62 117 9.24 117 14 C115.30875 14.5775 113.6175 15.155 111.875 15.75 C105.36293718 18.14918104 100.02605038 20.38539924 96.76171875 26.9140625 C94.20257267 33.9221856 94.8181784 40.36105885 96.65966797 47.47436523 C96.9275604 48.52262938 96.9275604 48.52262938 97.20086479 49.59207058 C99.09769211 56.75530298 101.68771579 63.59898725 104.4453125 70.47265625 C104.97409309 71.81176009 105.50199317 73.1512119 106.02908325 74.49098206 C107.40206981 77.97389221 108.78685299 81.45198173 110.17469788 84.92899323 C111.50716793 88.27268329 112.82879056 91.62064914 114.15136719 94.96826172 C117.09703667 102.41732302 120.05978437 109.85953515 123.02423859 117.30113602 C125.69146839 123.99887006 128.3535934 130.69863611 131.015625 137.3984375 C131.45982473 138.51629355 131.45982473 138.51629355 131.9129982 139.65673256 C137.85426848 154.6107423 143.74928255 169.58260714 149.625 184.5625 C150.07703796 185.7149118 150.52907593 186.86732361 150.99481201 188.05465698 C151.44302307 189.19734039 151.89123413 190.3400238 152.35302734 191.51733398 C153.23793518 193.7732828 154.12286324 196.02922368 155.0078125 198.28515625 C155.43472382 199.37350266 155.86163513 200.46184906 156.30148315 201.58317566 C161.01121099 213.58502821 165.75402763 225.5737493 170.50561523 237.55908203 C174.35840326 247.28342198 178.18282912 257.01843027 181.98182297 266.7639122 C183.47620534 270.59581554 184.97345722 274.42659911 186.47051048 278.25745964 C187.68991731 281.37891142 188.90641253 284.50143121 190.11914062 287.62548828 C191.47407059 291.11561733 192.83600895 294.60294193 194.19921875 298.08984375 C194.59545944 299.11621445 194.99170013 300.14258514 195.39994812 301.20005798 C200.99849553 315.46710712 206.11788415 327.33562224 220.05859375 334.7734375 C226.71566913 337.54942909 232.96714156 338.30984735 240.09375 338.4140625 C240.92588013 338.43342865 241.75801025 338.4527948 242.61535645 338.4727478 C245.24347042 338.53198326 247.87162956 338.5787021 250.5 338.625 C252.29428873 338.6632315 254.08856013 338.70228615 255.8828125 338.7421875 C260.25506561 338.83763781 264.62740445 338.92187257 269 339 C266.78020235 371.43966361 254.81345016 400.23135966 230 422 C193.14796353 452.56779446 146.65699781 457.58042575 100.359375 457.29296875 C97.64170584 457.28564481 94.92403692 457.28294388 92.20635986 457.28010559 C85.87129818 457.27092282 79.536399 457.2465041 73.20140767 457.21605712 C65.96754557 457.18207351 58.7336741 457.16591877 51.49975157 457.15097082 C36.6664036 457.11993529 21.83324373 457.06510495 7 457 C7 445.12 7 433.24 7 421 C12.115 420.9175 17.23 420.835 22.5 420.75 C53.24542919 419.9848589 85.53693967 415.18684033 110 395 C111.27423828 393.98679687 111.27423828 393.98679687 112.57421875 392.953125 C127.39808232 380.51288421 137.28022345 361.29684116 139 342 C139.22911135 338.35313584 139.33245791 334.71607767 139.375 331.0625 C139.38909912 330.20575684 139.40319824 329.34901367 139.41772461 328.46630859 C139.31822792 314.95742895 135.82495636 302.2781226 131.1875 289.6875 C130.71389701 288.37578713 130.24068178 287.0639342 129.76782227 285.75195312 C125.33471318 273.5515243 120.50491988 261.5028525 115.59643555 249.48706055 C115.15989655 248.41430122 115.15989655 248.41430122 114.71453857 247.31987 C114.17308933 245.99111735 113.62855395 244.66361572 113.08013916 243.33772278 C111.42900418 239.2857914 110.1763687 235.21085031 109 231 C93.27532491 231.10718748 77.55070025 231.21993957 61.8261137 231.33933926 C54.525124 231.39464688 47.2241294 231.44812485 39.9230957 231.49731445 C33.56045126 231.54018642 27.19784244 231.58647203 20.83525306 231.63687855 C17.46547908 231.66345521 14.09571205 231.68830767 10.72589684 231.70907402 C6.966547 231.73309828 3.20729142 231.76315575 -0.55200195 231.79467773 C-1.67265549 231.8004332 -2.79330902 231.80618866 -3.94792175 231.81211853 C-5.4812767 231.82680176 -5.4812767 231.82680176 -7.04560852 231.84178162 C-7.93513875 231.84823417 -8.82466898 231.85468672 -9.74115467 231.8613348 C-12.16822887 231.91301763 -12.16822887 231.91301763 -15 233 C-16.15754227 235.25238593 -17.11830928 237.41333301 -18.0390625 239.76171875 C-18.46271591 240.80313271 -18.46271591 240.80313271 -18.89492798 241.86558533 C-19.81552078 244.13544884 -20.72039129 246.41122463 -21.625 248.6875 C-22.25257811 250.24503327 -22.88116239 251.80216149 -23.51074219 253.35888672 C-24.76429476 256.4614536 -26.01239514 259.56613142 -27.25683594 262.67236328 C-28.76041411 266.41714144 -30.29681011 270.14722007 -31.8515625 273.87109375 C-32.26325684 274.85956299 -32.67495117 275.84803223 -33.09912109 276.86645508 C-33.84111498 278.64494234 -34.58601459 280.42222148 -35.33447266 282.19799805 C-40.20970311 293.99078523 -42.44627061 307.47805377 -39 320.0625 C-35.93945854 327.36181953 -30.09800985 333.21494262 -22.85546875 336.296875 C-22.24316406 336.52890625 -21.63085938 336.7609375 -21 337 C-20.071875 337.391875 -19.14375 337.78375 -18.1875 338.1875 C-13.48770188 339.38548776 -8.83555586 339.64617884 -4 340 C-4 347.26 -4 354.52 -4 362 C-47.23 362 -90.46 362 -135 362 C-135 354.41 -135 346.82 -135 339 C-132.751875 338.649375 -130.50375 338.29875 -128.1875 337.9375 C-116.60234402 335.78431709 -107.72779039 329.66681958 -101 320 C-99.17222038 316.86112399 -97.48362619 313.65611471 -95.80859375 310.43359375 C-95.32571396 309.50666214 -94.84283417 308.57973053 -94.34532166 307.62471008 C-89.4767091 298.16173559 -85.21374966 288.48138581 -81.0625 278.6875 C-80.25274127 276.79407292 -79.44250691 274.90084919 -78.63183594 273.0078125 C-70.04323038 252.90744874 -61.66182931 232.71923868 -53.29248047 212.52685547 C-50.27946197 205.2592012 -47.24966467 197.99856775 -44.2199707 190.737854 C-35.77995024 170.5057603 -27.38486103 150.25500379 -19 130 C-18.62039124 129.08309387 -18.24078247 128.16618774 -17.84967041 127.22149658 C-8.48537619 104.6013108 0.84836942 81.96879159 10.125 59.3125 C10.51912079 58.35072845 10.91324158 57.38895691 11.31930542 56.39804077 C12.42488875 53.69939505 13.52910031 51.0001927 14.6328125 48.30078125 C15.12511604 47.09955124 15.12511604 47.09955124 15.62736511 45.87405396 C18.14868908 39.69927755 20.09374702 34.69641035 19 28 C16.41952429 22.24531081 11.78059768 20.26429757 6.125 18.0625 C4.10375 17.381875 2.0825 16.70125 0 16 C0 10.72 0 5.44 0 0 Z " fill="#042A4A" transform="translate(405,270)"/>
<path d="M0 0 C2.48034883 2.18749906 3.82639367 3.92731902 4.36181641 7.2355957 C4.51025254 9.87046451 4.56060688 12.48598722 4.5625 15.125 C4.57143364 16.91938513 4.59302528 18.71376391 4.62890625 20.5078125 C4.62963135 21.29816895 4.63035645 22.08852539 4.63110352 22.90283203 C5.09496139 25.5398533 5.90025916 26.38291926 8 28 C11.67391812 29.22463937 15.05555068 29.13657924 18.88037109 29.12597656 C19.68232407 29.1278447 20.48427704 29.12971283 21.31053162 29.13163757 C23.05222629 29.13564099 24.79392622 29.13771636 26.53562546 29.13809967 C30.23820322 29.14151489 33.94060531 29.16287551 37.64312172 29.18333054 C44.53749544 29.22136084 51.43168129 29.25261337 58.32617188 29.25048828 C63.12149258 29.24970158 67.91617001 29.27304605 72.71132278 29.3123703 C74.53811375 29.32283742 76.36497889 29.32434908 78.19178391 29.31671906 C80.74884482 29.30710386 83.30395511 29.32826442 85.86083984 29.35644531 C86.61426163 29.34624863 87.36768341 29.33605194 88.14393616 29.32554626 C92.0707314 29.4030965 93.85912016 29.89134076 97.00479126 32.31756592 C99 35 99 35 99.0625 38.5625 C97.93589109 42.20741119 97.05042821 43.75703808 94 46 C93.01 46 92.02 46 91 46 C102.4914249 74.22591371 113.98952735 102.44897094 125.53857422 130.65136719 C125.89488922 131.52162033 126.25120422 132.39187347 126.61831665 133.28849792 C127.27564698 134.89381519 127.93316333 136.49905631 128.59091187 138.10420227 C129.02592514 139.166493 129.02592514 139.166493 129.46972656 140.25024414 C129.73837524 140.89994171 130.00702393 141.54963928 130.28381348 142.21902466 C130.91314078 143.78400303 131.48438235 145.37207745 132.04589844 146.96264648 C132.36075195 147.63497314 132.67560547 148.3072998 133 149 C135.54775306 149.89386164 135.54775306 149.89386164 138 150 C136.68221612 160.88307721 131.94744736 168.11692256 123.61328125 175.1484375 C111.82034691 183.50396945 98.33872871 186.56806409 84.125 186.4375 C82.97966797 186.43065186 81.83433594 186.42380371 80.65429688 186.41674805 C72.41157431 186.25999542 65.56729283 185.44896105 58 182 C57.12988281 181.649375 56.25976562 181.29875 55.36328125 180.9375 C46.65909456 177.09859377 37.1377038 169.81746487 33 161 C32.08058686 157.69205854 31.45845276 154.40076152 31 151 C31.62277328 150.90402527 32.24554657 150.80805054 32.88719177 150.70916748 C35.42447095 150.12527054 35.42447095 150.12527054 36.80493164 146.65332031 C37.43896666 145.13468544 38.05606006 143.60891567 38.66015625 142.078125 C39.00257355 141.24697174 39.34499084 140.41581848 39.69778442 139.55947876 C40.83328604 136.79512886 41.94753801 134.02269054 43.0625 131.25 C43.85222127 129.31847673 44.64367044 127.3876591 45.43676758 125.45751953 C46.67953717 122.43191717 47.92093258 119.40581047 49.15672302 116.37734985 C53.73209128 105.16684415 58.45914434 94.02161164 63.1875 82.875 C68.52514951 70.27691619 73.81815416 57.66305162 79 45 C71.01958157 45.06132305 63.03953873 45.13850883 55.05948448 45.23571491 C51.35364347 45.28036274 47.64791097 45.31963077 43.94189453 45.34643555 C40.36255267 45.37252489 36.78362964 45.41296603 33.20454788 45.46318626 C31.84192761 45.47981715 30.47923495 45.49135493 29.11652756 45.49761391 C27.20175349 45.50729531 25.28711355 45.53708538 23.37255859 45.56762695 C21.74040909 45.58428154 21.74040909 45.58428154 20.07528687 45.60127258 C15.27074019 46.2242078 12.00658229 47.93900786 8.6875 51.4375 C5.72516709 55.93585738 5.85073094 60.17781695 5.84851074 65.44377136 C5.84427833 66.19629616 5.84004592 66.94882095 5.83568525 67.72414953 C5.82266288 70.24733543 5.81663525 72.77048972 5.81054688 75.29370117 C5.80260388 77.1023274 5.79421587 78.91095172 5.78541565 80.71957397 C5.76735625 84.61606988 5.75234113 88.51256158 5.73963928 92.4090786 C5.71941 98.5742041 5.69175645 104.73928253 5.66296387 110.90437317 C5.60286342 123.99872667 5.55106233 137.09310862 5.5 150.1875 C5.44488882 164.30661595 5.38829042 178.42571756 5.32245111 192.54478818 C5.29417201 198.66893152 5.27055 204.79306962 5.25052643 210.91724527 C5.2370917 214.73515823 5.21968147 218.55304572 5.20121574 222.37093735 C5.19349243 224.13612914 5.18740868 225.90132903 5.18312263 227.66653252 C5.14168417 244.09803384 5.14168417 244.09803384 4 252 C-2.89439709 250.44876066 -7.57503478 245.97253801 -11.9375 240.625 C-15.41457071 232.03459002 -14.15203142 221.34406847 -14.15771484 212.19262695 C-14.16238992 210.4966214 -14.16753461 208.80061709 -14.17311096 207.10461426 C-14.18434006 203.46738619 -14.19279876 199.83016607 -14.19923019 196.19292641 C-14.20995664 190.43988156 -14.23021072 184.68689451 -14.25234985 178.93388367 C-14.31412812 162.57989126 -14.36834359 146.2259039 -14.40136719 129.87182617 C-14.41970828 120.82822687 -14.44862932 111.78472608 -14.4893719 102.7411992 C-14.51043378 97.96017028 -14.52589819 93.17926539 -14.52817917 88.39818764 C-14.53032538 83.90583087 -14.54619186 79.41373323 -14.57256889 74.92145538 C-14.57976173 73.27433641 -14.58186292 71.62718604 -14.57846642 69.98005486 C-14.5745667 67.72930168 -14.58904089 65.47937414 -14.60800171 63.22871399 C-14.61296693 61.34090194 -14.61296693 61.34090194 -14.61803246 59.41495228 C-15.09847774 55.11956709 -16.32783232 51.55660225 -19.54638672 48.56048584 C-26.15962838 45.18522577 -32.82926064 45.39755752 -40.125 45.390625 C-41.48122103 45.37562074 -42.83742395 45.35888892 -44.19360352 45.34051514 C-47.73794458 45.29708016 -51.28203928 45.27689625 -54.82659912 45.26177979 C-58.45355657 45.24212176 -62.08025127 45.20016204 -65.70703125 45.16015625 C-72.8045869 45.08511358 -79.90212281 45.03466583 -87 45 C-88.00460531 42.87717331 -89.00355602 40.75166979 -90 38.625 C-90.8353125 36.84996094 -90.8353125 36.84996094 -91.6875 35.0390625 C-93 32 -93 32 -93 30 C-92.0965535 29.99413376 -91.19310699 29.98826752 -90.26228333 29.98222351 C-81.74301887 29.92429028 -73.22401641 29.85220986 -64.7050066 29.76428509 C-60.32541053 29.719581 -55.94590749 29.68032502 -51.56616211 29.65356445 C-47.33847241 29.62753175 -43.1111407 29.58712978 -38.88367271 29.53681374 C-37.27181136 29.52014476 -35.65988809 29.50863066 -34.04795265 29.50238609 C-31.78785407 29.49274509 -29.52867138 29.4646875 -27.26879883 29.43237305 C-25.98306473 29.42126999 -24.69733063 29.41016693 -23.37263489 29.39872742 C-19.77830549 28.97379032 -17.85110906 28.1945563 -15 26 C-14.27483219 23.88372736 -14.27483219 23.88372736 -14.3984375 21.5078125 C-14.38296875 20.63769531 -14.3675 19.76757812 -14.3515625 18.87109375 C-14.36316406 17.51177734 -14.36316406 17.51177734 -14.375 16.125 C-14.375 5.15640394 -14.375 5.15640394 -11 1 C-7.44724114 -1.79145339 -4.20120319 -1.12532228 0 0 Z " fill="#042746" transform="translate(629,325)"/>
<path d="M0 0 C2.16445912 3.24668868 3.50786882 6.55337238 4.9140625 10.1640625 C5.20056168 10.89143616 5.48706085 11.61880981 5.78224182 12.3682251 C6.73336482 14.7857772 7.67927914 17.20533003 8.625 19.625 C9.29443874 21.33098573 9.96412079 23.036876 10.6340332 24.74267578 C12.04329491 28.33342135 13.45006659 31.92512926 14.85498047 35.51757812 C16.60161089 39.98364329 18.35309805 44.44778173 20.10626221 48.9112854 C26.84307303 66.06773718 33.52425679 83.24307434 40 100.5 C40.26001801 101.19188416 40.52003601 101.88376831 40.78793335 102.59661865 C45 113.81875678 45 113.81875678 45 115 C14.31 115 -16.38 115 -48 115 C-44.62688201 104.88064604 -44.62688201 104.88064604 -42.53125 100.10546875 C-42.05220215 99.00759033 -41.5731543 97.90971191 -41.07958984 96.77856445 C-40.5583252 95.59351318 -40.03706055 94.40846191 -39.5 93.1875 C-38.9378066 91.90020511 -38.37613802 90.61268092 -37.81494141 89.32495117 C-36.57097881 86.47093971 -35.32551975 83.61758831 -34.07910156 80.76464844 C-30.15993039 71.78833046 -26.26423034 62.80182478 -22.375 53.8125 C-21.96669952 52.86892639 -21.55839905 51.92535278 -21.13772583 50.95318604 C-14.55030301 35.71646938 -8.14331305 20.42162402 -2 5 C-1.33350855 3.33326326 -0.66689017 1.66657725 0 0 Z " fill="#FBFCFC" transform="translate(453,349)"/>
<path d="M0 0 C2.08567999 2.62016348 3.59114397 5.0421316 4.83081055 8.1496582 C5.15988403 8.96579086 5.48895752 9.78192352 5.82800293 10.62278748 C6.17737915 11.50652542 6.52675537 12.39026337 6.88671875 13.30078125 C7.26131226 14.23378555 7.63590576 15.16678986 8.02185059 16.12806702 C9.24906185 19.18744063 10.46820767 22.24996283 11.6875 25.3125 C13.39342188 29.57258265 15.10322231 33.83110667 16.8125 38.08984375 C17.24394821 39.16659363 17.67539642 40.24334351 18.11991882 41.35272217 C22.75532051 52.91108418 27.49161934 64.42754391 32.24594116 75.93740845 C33.2212552 78.29888246 34.19468241 80.66112725 35.16796875 83.0234375 C35.45764526 83.72219498 35.74732178 84.42095245 36.04577637 85.1408844 C38 89.88712131 38 89.88712131 38 91 C27.96363859 92.13893309 17.96156742 92.15316173 7.87670898 92.13037109 C5.09938951 92.12507041 2.32223607 92.13031203 -0.45507812 92.13671875 C-12.99594059 92.14088142 -25.47960411 91.70291627 -38 91 C-33.17668725 79.37132371 -28.32494702 67.75543358 -23.421875 56.16015625 C-23.01491898 55.19755386 -22.60796295 54.23495148 -22.18867493 53.24317932 C-20.1415844 48.40196002 -18.09277995 43.56147458 -16.04174805 38.72192383 C-10.59460991 25.85484253 -5.26042477 12.94452063 0 0 Z " fill="#FBFBFC" transform="translate(713,384)"/>
<path d="M0 0 C0.33 0 0.66 0 1 0 C1 7.26 1 14.52 1 22 C3.77607666 21.96970703 6.55215332 21.93941406 9.41235352 21.90820312 C18.72005653 21.80688458 28.02777893 21.70743954 37.33551121 21.60884857 C42.9631859 21.54918334 48.59085303 21.48894144 54.21850586 21.42724609 C79.14652041 21.15437769 104.07028511 20.91249747 129 21 C129 15.06 129 9.12 129 3 C127.68 2.67 126.36 2.34 125 2 C126.98 2 128.96 2 131 2 C131 8.93 131 15.86 131 23 C87.77 23 44.54 23 0 23 C0 15.41 0 7.82 0 0 Z " fill="#071126" transform="translate(270,609)"/>
<path d="M0 0 C4.95 0 9.9 0 15 0 C15 0.33 15 0.66 15 1 C32.82 1.33 50.64 1.66 69 2 C69 2.33 69 2.66 69 3 C45.9 3 22.8 3 -1 3 C-0.67 2.01 -0.34 1.02 0 0 Z " fill="#083257" transform="translate(681,475)"/>
<path d="M0 0 C4.95 0 9.9 0 15 0 C15 0.33 15 0.66 15 1 C17.31 1.33 19.62 1.66 22 2 C22 2.33 22 2.66 22 3 C14.41 3 6.82 3 -1 3 C-0.67 2.01 -0.34 1.02 0 0 Z " fill="#1D405E" transform="translate(681,475)"/>
<path d="M0 0 C1 2 1 2 0.328125 4.49609375 C-0.02765625 5.46675781 -0.3834375 6.43742187 -0.75 7.4375 C-1.26820313 8.88962891 -1.26820313 8.88962891 -1.796875 10.37109375 C-2.93844347 12.86549498 -3.93085438 14.24598288 -6 16 C-5.52412884 9.97229862 -2.80277043 5.23321711 0 0 Z " fill="#0D1930" transform="translate(385,404)"/>
<path d="M0 0 C2.50356732 3.75535098 1.9608592 4.86889414 1.125 9.1875 C0.92132813 10.27417969 0.71765625 11.36085938 0.5078125 12.48046875 C0.34023438 13.31191406 0.17265625 14.14335937 0 15 C-0.33 15 -0.66 15 -1 15 C-1.02693575 12.87506859 -1.04636628 10.75004088 -1.0625 8.625 C-1.07410156 7.44164062 -1.08570313 6.25828125 -1.09765625 5.0390625 C-1 2 -1 2 0 0 Z " fill="#0D3254" transform="translate(498,298)"/>
</svg>
